<svg width="148" height="133" viewBox="0 0 148 133" fill="none" xmlns="http://www.w3.org/2000/svg">
<path d="M145.317 86.9605L122.965 86.691C122.306 86.6831 121.671 86.9341 121.2 87.3888C120.729 87.8435 120.459 88.4646 120.452 89.1156L120.422 91.57L116.059 91.5174C109.012 91.4128 102.189 93.9645 96.9787 98.6536L88.0474 98.5442L88.0462 98.5442C86.9237 98.5288 85.8124 98.7652 84.7959 99.2357C84.2356 99.0275 83.6608 98.8597 83.076 98.7334L83.9004 30.339L87.1355 24.1315C88.7109 24.653 90.3589 24.9285 92.0201 24.9479L117.696 25.2574L106.697 54.5825L100.997 54.5138C100.338 54.5058 99.7033 54.7568 99.232 55.2115C98.7607 55.6662 98.4915 56.2873 98.4836 56.9383L98.4541 59.3927C98.3834 65.2514 100.671 70.8984 104.813 75.0917C108.955 79.2849 114.612 81.6808 120.54 81.7522C126.469 81.8237 132.182 79.5649 136.424 75.4727C140.666 71.3805 143.089 65.7902 143.159 59.9316L143.189 57.4771C143.197 56.8262 142.942 56.1987 142.482 55.7328C142.022 55.2669 141.393 55.0007 140.735 54.9927L135.034 54.924L124.745 25.3423L136.122 25.4795C136.781 25.4874 137.416 25.2364 137.887 24.7817C138.359 24.3271 138.628 23.7059 138.636 23.055L138.724 15.6916C138.732 15.0656 138.497 14.4603 138.068 13.9996C137.639 13.5389 137.048 13.2576 136.416 13.2132L98.3295 10.5381C96.2917 10.3958 94.3776 9.51862 92.9509 8.07331C90.5225 5.61481 87.628 3.65295 84.4327 2.29974C81.2374 0.946526 77.8039 0.228467 74.3281 0.186558C70.8524 0.144648 67.4025 0.77971 64.1755 2.05548C60.9485 3.33126 58.0075 5.22276 55.5205 7.62199C54.0593 9.03253 52.1246 9.86334 50.0839 9.95657L11.9437 11.7128C11.3109 11.742 10.7134 12.009 10.2733 12.4592C9.83328 12.9095 9.58397 13.5089 9.57641 14.1349L9.48766 21.4982C9.47982 22.1492 9.73396 22.7767 10.1942 23.2426C10.6544 23.7085 11.283 23.9747 11.9417 23.9826L23.319 24.1198L12.3199 53.4449L6.61943 53.3762C5.96074 53.3682 5.32591 53.6192 4.85459 54.0739C4.38328 54.5286 4.11408 55.1497 4.10623 55.8007L4.07664 58.2551C4.00603 64.1138 6.29329 69.7608 10.4353 73.9541C14.5773 78.1473 20.2347 80.5432 26.1629 80.6146C32.0912 80.6861 37.8047 78.4273 42.0465 74.3351C46.2884 70.2429 48.7111 64.6526 48.7817 58.794L48.8113 56.3395C48.8192 55.6886 48.565 55.0611 48.1048 54.5952C47.6446 54.1293 47.016 53.8631 46.3573 53.8552L40.6568 53.7864L30.3677 24.2047L56.0441 24.5142C57.7052 24.5349 59.3594 24.2993 60.9468 23.8158L64.0315 30.0995L63.2071 98.4918C60.9188 98.9294 58.8008 99.9927 57.0938 101.561C55.3868 103.129 54.1592 105.139 53.5505 107.362C48.7621 102.817 43.2061 99.1339 37.1338 96.4806L30.9722 93.7828L31.0118 90.4923C31.0197 89.8413 30.7655 89.2139 30.3053 88.748C29.8451 88.2821 29.2165 88.0158 28.5578 88.0079L1.23801 87.6786C0.579312 87.6707 -0.0555189 87.9216 -0.526834 88.3763C-0.998149 88.831 -1.26734 89.4522 -1.2752 90.1031L-1.63022 119.557C-1.63806 120.207 -1.38392 120.835 -0.923697 121.301C-0.463478 121.767 0.165119 122.033 0.823813 122.041L28.1436 122.37C28.7912 122.379 29.4162 122.136 29.8844 121.693C32.6386 125.024 36.0986 127.716 40.0203 129.58C43.9419 131.445 48.2296 132.436 52.5807 132.484L77.6976 132.787C78.8897 132.802 80.0679 132.533 81.1332 132.005C82.1985 131.476 83.1198 130.702 83.8195 129.749C84.5193 128.795 84.9772 127.689 85.1547 126.524C85.3322 125.359 85.224 124.169 84.8394 123.054L95.2012 123.178C103.51 123.261 111.637 120.785 118.455 116.094L120.126 116.115L120.097 118.569C120.089 119.22 120.343 119.847 120.803 120.313C121.263 120.779 121.892 121.045 122.551 121.053L144.903 121.323C145.562 121.331 146.197 121.08 146.668 120.625C147.139 120.17 147.408 119.549 147.416 118.898L147.771 89.4449C147.779 88.7939 147.525 88.1665 147.065 87.7005C146.605 87.2346 145.976 86.9684 145.317 86.9605ZM25.7191 117.431L3.3666 117.162L3.66245 92.6174L26.015 92.8869L25.7191 117.431ZM138.192 59.8717C138.137 64.4284 136.253 68.7765 132.953 71.9592C129.654 75.142 125.21 76.8989 120.6 76.8433C115.989 76.7877 111.588 74.9243 108.367 71.6629C105.145 68.4015 103.366 64.0093 103.421 59.4526L138.192 59.8717ZM129.759 54.8605L111.972 54.6461L121.162 30.1433L129.759 54.8605ZM43.8145 58.7341C43.7596 63.2908 41.8752 67.6389 38.576 70.8216C35.2768 74.0044 30.833 75.7613 26.2221 75.7057C21.6112 75.6501 17.211 73.7867 13.9895 70.5253C10.7679 67.2639 8.98895 62.8717 9.04388 58.315L43.8145 58.7341ZM35.3821 53.7229L17.5946 53.5085L26.785 29.0057L35.3821 53.7229ZM63.894 16.5254C62.8661 17.5224 61.6483 18.3079 60.311 18.8366C58.9737 19.3653 57.5435 19.6265 56.1032 19.6053L14.4845 19.1037L14.5157 16.5091L50.3165 14.8606C53.5726 14.7119 56.6596 13.3862 58.991 11.1355C61.0113 9.18654 63.4003 7.65 66.0217 6.61365C68.6431 5.57729 71.4455 5.06141 74.269 5.09545C77.0924 5.1295 79.8816 5.71281 82.4772 6.81208C85.0729 7.91135 87.4242 9.50504 89.3968 11.5022C91.6732 13.8084 94.7273 15.208 97.9787 15.4351L133.729 17.9461L133.698 20.5406L92.0793 20.039C90.6389 20.0255 89.2155 19.7298 87.8914 19.1691C86.5673 18.6083 85.3688 17.7936 84.3653 16.7722L84.365 16.772C81.6827 14.0566 78.019 12.505 74.18 12.4588C70.3409 12.4126 66.6409 13.8754 63.894 16.5254L63.894 16.5254ZM68.0866 27.1142L65.4037 21.6489C66.0991 21.1642 66.7547 20.6259 67.3641 20.0389C69.1686 18.2982 71.599 17.3373 74.1209 17.3677C76.6427 17.3981 79.0493 18.4173 80.8112 20.201C80.8112 20.201 82.0554 21.3603 82.7323 21.8578L79.9184 27.2568L68.0866 27.1142ZM78.9106 32.1543L78.1118 98.4244L68.1773 98.3047L68.9761 32.0345L78.9106 32.1543ZM65.6345 103.184L80.5362 103.363C80.676 103.365 80.8154 103.372 80.9543 103.382C80.3744 104.96 80.3568 106.687 80.9044 108.277L58.5502 108.008C59.0827 106.579 60.0495 105.349 61.3178 104.485C62.5862 103.622 64.0941 103.167 65.6345 103.184ZM77.7567 127.878L52.6398 127.575C48.5502 127.53 44.5351 126.486 40.9525 124.535C37.3699 122.585 34.331 119.789 32.1068 116.396L30.7249 114.294L30.9078 99.1235L35.1227 100.969C41.2028 103.625 46.7116 107.408 51.3507 112.113C51.5786 112.344 51.8502 112.528 52.1501 112.655C52.45 112.782 52.7722 112.85 53.0984 112.854L53.099 112.854L63.0319 112.972C63.6906 112.979 64.3193 113.245 64.7797 113.711C65.2401 114.177 65.4944 114.804 65.4867 115.455C65.4791 116.106 65.2101 116.727 64.7389 117.182C64.2678 117.637 63.633 117.888 62.9743 117.88L50.5553 117.731L50.4961 122.64L77.8159 122.969C78.1423 122.973 78.4648 123.04 78.7649 123.167C79.0651 123.293 79.337 123.477 79.5652 123.708C79.7933 123.939 79.9733 124.212 80.0947 124.511C80.2161 124.811 80.2765 125.131 80.2726 125.453C80.2688 125.776 80.2006 126.095 80.072 126.391C79.9434 126.687 79.757 126.956 79.5233 127.181C79.2897 127.406 79.0134 127.584 78.7102 127.703C78.4071 127.823 78.0831 127.882 77.7567 127.878ZM120.185 111.206L117.702 111.176C117.164 111.169 116.639 111.335 116.206 111.649C110.126 116.023 102.781 118.345 95.2604 118.27L72.9079 118C72.5815 117.997 72.259 117.929 71.9588 117.803C71.6587 117.676 71.3867 117.492 71.1586 117.261C70.9304 117.03 70.7505 116.757 70.6291 116.458C70.5077 116.159 70.4472 115.838 70.4511 115.516C70.455 115.193 70.5232 114.875 70.6518 114.578C70.7803 114.282 70.9668 114.013 71.2004 113.788C71.4341 113.563 71.7104 113.386 72.0135 113.266C72.3166 113.146 72.6406 113.087 72.967 113.091L90.3514 113.302L90.3514 113.301L100.287 113.421L100.346 108.512L87.9273 108.362C87.6011 108.358 87.2789 108.291 86.9791 108.164C86.6793 108.037 86.4077 107.852 86.1798 107.622C85.7197 107.156 85.4656 106.528 85.4736 105.877C85.4815 105.226 85.7508 104.605 86.2221 104.151C86.6935 103.696 87.3284 103.445 87.9871 103.453L87.9874 103.453L97.9206 103.575L97.9212 103.575C98.2474 103.579 98.5711 103.519 98.874 103.399C99.1768 103.28 99.4528 103.102 99.6862 102.877C101.838 100.789 104.388 99.1436 107.189 98.0363C109.989 96.9291 112.984 96.3819 116 96.4263L120.363 96.4789L120.185 111.206ZM142.479 116.384L125.093 116.174L125.389 91.6299L142.775 91.8394L142.479 116.384Z" fill="#21730D"/>
</svg>
