<svg width="139" height="141" viewBox="0 0 139 141" fill="none" xmlns="http://www.w3.org/2000/svg">
<path d="M61.0891 80.0129C61.2281 80.185 61.3893 80.3378 61.5664 80.4722C68.4553 86.9934 77.6932 90.9898 87.8367 90.9898C97.8498 90.9898 106.983 87.0956 113.843 80.7218C114.222 80.5013 114.541 80.1915 114.775 79.8236C121.928 72.7226 126.376 62.8268 126.376 51.8972C126.376 30.3404 109.087 12.8036 87.8367 12.8036C66.5856 12.8036 49.2976 30.3404 49.2976 51.8972C49.2976 62.9247 53.8238 72.899 61.0891 80.0129ZM66.0862 77.1977C67.4712 69.9676 73.7068 64.6717 81.1101 64.6717H85.1219V75.0774C85.1219 76.5974 86.3372 77.8313 87.8367 77.8313C89.3352 77.8313 90.5516 76.5974 90.5516 75.0774V64.6717H94.5623C101.975 64.6717 108.203 69.9644 109.587 77.1966C103.765 82.3537 96.1541 85.483 87.8367 85.483C79.5183 85.482 71.9082 82.3537 66.0862 77.1977ZM79.6434 48.8109H82.2617C85.8356 48.8109 89.2387 47.505 91.892 45.1674L96.029 47.633V50.8527C96.029 55.4353 92.3533 59.1639 87.8367 59.1639C83.3191 59.1639 79.6434 55.4353 79.6434 50.8527V48.8109ZM96.029 41.2452L92.8221 39.3347C91.6789 38.6527 90.2186 38.9087 89.3659 39.9403C87.6002 42.0778 85.0116 43.3031 82.2617 43.3031H79.6434V40.6686C79.6434 36.0859 83.3191 32.3585 87.8367 32.3585C92.3533 32.3585 96.029 36.0859 96.029 40.6686V41.2452ZM87.8367 18.3114C106.093 18.3114 120.946 33.3772 120.946 51.8972C120.946 59.691 118.314 66.8737 113.906 72.5784C111.346 65.841 105.512 60.8689 98.4299 59.5264C100.323 57.1522 101.459 54.1348 101.459 50.8527V40.6686C101.459 33.0491 95.3481 26.8496 87.8367 26.8496C80.3253 26.8496 74.2137 33.0491 74.2137 40.6686V50.8527C74.2137 54.1358 75.3506 57.1533 77.2425 59.5264C70.168 60.8722 64.33 65.8464 61.7689 72.5806C57.3594 66.8748 54.7273 59.6921 54.7273 51.8972C54.7273 33.3772 69.5794 18.3114 87.8367 18.3114Z" fill="#21730D"/>
<path d="M87.4337 104.613C101.207 104.613 114.157 99.172 123.896 89.2924C133.636 79.4127 139 66.2768 139 52.3051C139 38.3334 133.636 25.1975 123.896 15.3178C115.58 6.88294 104.572 1.54618 92.9005 0.290789C81.3985 -0.946315 69.7088 1.79683 59.9788 8.0157C58.7105 8.82573 58.3298 10.5265 59.1283 11.8131C59.9279 13.0997 61.6046 13.4869 62.8729 12.6758C81.2012 0.962053 104.715 3.65033 120.056 19.2131C128.77 28.0525 133.57 39.805 133.57 52.3051C133.57 64.8063 128.77 76.5588 120.056 85.3982C111.343 94.2375 99.7576 99.1053 87.4337 99.1053C75.1098 99.1053 63.524 94.2375 54.8111 85.3982C39.4691 69.8365 36.8189 45.983 48.3655 27.392C49.1651 26.1043 48.7844 24.4046 47.516 23.5935C46.2466 22.7824 44.5711 23.1686 43.7715 24.4552C37.6419 34.3251 34.9376 46.1852 36.1572 57.8505C36.8995 64.9591 39.0947 71.8234 42.5286 78.0003L31.4677 89.2203L4.05423 117.03C1.44014 119.682 0 123.207 0 126.957C0 130.707 1.44014 134.234 4.05423 136.885C6.66832 139.537 10.1435 140.997 13.8414 140.997C17.5383 140.997 21.0135 139.537 23.6276 136.885L51.0421 109.076C51.0421 109.076 51.0421 109.075 51.0432 109.075L62.0797 97.88C69.7289 102.274 78.4037 104.613 87.4337 104.613ZM19.7886 132.99C18.199 134.602 16.0875 135.489 13.8404 135.489C11.5943 135.489 9.48178 134.602 7.89318 132.99C4.61416 129.664 4.61416 124.251 7.89318 120.925L33.3883 95.0626L45.2827 107.129L19.7886 132.99ZM49.1227 103.234L37.2272 91.1684L45.517 82.7594C47.1502 85.0754 48.971 87.2635 50.9711 89.2924C52.9839 91.3341 55.1356 93.1822 57.4008 94.8367L49.1227 103.234Z" fill="#21730D"/>
<path d="M52.8917 20.0196C53.5864 20.0196 54.281 19.7517 54.8112 19.2138C55.8717 18.1381 55.8717 16.3943 54.8112 15.3186V15.3175C53.7507 14.2428 52.0317 14.2428 50.9712 15.3175C49.9118 16.3932 49.9118 18.1381 50.9723 19.2127C51.5025 19.7517 52.1971 20.0196 52.8917 20.0196Z" fill="#21730D"/>
</svg>
