<svg width="147" height="135" viewBox="0 0 147 135" fill="none" xmlns="http://www.w3.org/2000/svg">
<path d="M146.207 36.5536C146.173 36.5179 146.138 36.4829 146.102 36.449L115.757 9.47919C115.481 9.2268 115.158 9.03102 114.806 8.9023L92.8548 1.05653C91.3574 0.512803 89.7028 1.2862 89.159 2.78361C89.061 3.05367 89.004 3.3367 88.9896 3.62371C88.9896 4.25829 88.0377 18.8826 73.4134 19.1133C58.7026 18.8826 57.7796 4.25829 57.7507 3.62371C57.6656 2.03292 56.3071 0.812428 54.7163 0.89752C54.443 0.912303 54.1729 0.965666 53.9144 1.05653L31.9924 8.98883C31.6405 9.11755 31.3174 9.31334 31.0405 9.56573L0.897755 36.449C-0.257116 37.5462 -0.303988 39.3721 0.793193 40.527C0.827086 40.5626 0.86206 40.5976 0.897755 40.6315L24.8966 64.8899V131.233C24.8966 132.826 26.1881 134.117 27.7811 134.117H119.219C120.812 134.117 122.103 132.826 122.103 131.233V64.8899L146.102 40.6315C147.257 39.5343 147.304 37.7088 146.207 36.5536ZM122.017 56.6692V43.2852C122.017 41.6923 120.725 40.4008 119.132 40.4008C117.539 40.4008 116.248 41.6923 116.248 43.2852V128.204H30.5501V43.2852C30.5501 41.6923 29.2586 40.4008 27.6657 40.4008C26.0727 40.4008 24.7812 41.6923 24.7812 43.2852V56.698L7.04168 38.7278L34.5019 14.152L52.5587 7.63313C54.7956 19.1588 65.9524 26.689 77.478 24.4521C85.9897 22.8001 92.6449 16.1449 94.297 7.63313L112.354 14.152L139.727 38.7278L122.017 56.6692Z" fill="#21730D"/>
</svg>
